# xmcd
#
# Track frame offsets:
#	150
#	13285
#	31685
#	46977
#	61961
#	67623
#	81605
#	94226
#	107068
#	120007
#	134448
#	152051
#	170828
#	183351
#	200890
#	217772
#	233004
#	253055
#	271725
#	285351
#	308772
#
# Disc length: 4297 seconds
#
# Revision: 0
# Processed by: cddbd v1.5.2PL0 Copyright (c) Steve Scherf et al.
# Submitted via: dBpowerAMP V4.0
#
DISCID=1d10c715
DTITLE=Gilberto e Gilmar - Ao Vivo
DYEAR=1900
DGENRE=Country
TTITLE0=Nóis não vive sem muié
TTITLE1=Tá ruim, mas tá bom
TTITLE2=Assino com x
TTITLE3=Demoro
TTITLE4=Uirapuru
TTITLE5=Palavras de amor
TTITLE6=Tadim tadim
TTITLE7=Em poucas palavras
TTITLE8=Mais que paixão
TTITLE9=Luz do amanhecer
TTITLE10=Quebrando tudo
TTITLE11=Os verdes campos de minha terra
TTITLE12=Capa de reveista
TTITLE13=O que ela gosta não é mole não
TTITLE14=Só mais uma vez
TTITLE15=Cuitelinho
TTITLE16=PP Fome de amor-o Abajur-Hoje eu topo tudo que vier
TTITLE17=Mágoa de boiadeiro
TTITLE18=Pé de lã
TTITLE19=É Jesus
TTITLE20=Música de saudade
EXTD=
EXTT0=
EXTT1=
EXTT2=
EXTT3=
EXTT4=
EXTT5=
EXTT6=
EXTT7=
EXTT8=
EXTT9=
EXTT10=
EXTT11=
EXTT12=
EXTT13=
EXTT14=
EXTT15=
EXTT16=
EXTT17=
EXTT18=
EXTT19=
EXTT20=
PLAYORDER=
